<?xml version="1.0" encoding="iso-8859-1"?>
<!-- Generator: Adobe Illustrator 19.0.0, SVG Export Plug-In . SVG Version: 6.00 Build 0)  -->
<svg version="1.1" id="Capa_1" xmlns="http://www.w3.org/2000/svg" xmlns:xlink="http://www.w3.org/1999/xlink" x="0px" y="0px"
	 viewBox="0 0 423.067 423.067" style="enable-background:new 0 0 423.067 423.067;" xml:space="preserve">
<g>
	<g>
		<path d="M250.734,40.667c-12-14-22.8-26.4-31.2-36.8c-0.4-0.8-1.2-1.2-1.6-1.6c-4.4-3.6-10.8-2.8-14.4,1.6
			c-8.4,10.4-19.2,22.8-31.2,36.8c-52.8,61.6-126,146.4-126,217.2c0,2,0,3.6,0,5.6c0,0.8,0,2,0,2.8s0.4,1.6,0.4,2.8
			c2.8,41.2,20.4,78.4,48,105.6c30,30,71.2,48.4,116.8,48.4c45.6,0,86.8-18.4,116.8-48.4c24.8-24.8,41.6-57.6,46.8-94
			c0.4-3.2,0.8-6.8,1.2-10.4c0.4-4,0.4-8.4,0.4-12.8C376.734,186.667,303.534,101.867,250.734,40.667z M313.934,360.267
			c-26.4,26-62.4,42.4-102.4,42.4s-76-16.4-102.4-42.4c-24.8-24.8-40.8-59.2-42.4-96.8c0.8-17.6,8-33.2,19.6-44.8
			c12-12,28.8-19.6,47.6-19.6s35.2,7.6,47.6,19.6c12,12,19.6,28.8,19.6,47.6c0,24,10,46,25.6,62c16,16,37.6,25.6,62,25.6
			c14,0,26.8-3.2,38.8-9.2C323.534,350.267,318.734,355.467,313.934,360.267z M356.334,264.667c0,0.4,0,0.8,0,1.2c0,0.8,0,1.6,0,2
			c-0.4,3.6-0.4,6.8-1.2,10.4c-2.4,13.6-9.2,25.6-18.4,35.2c-12,12-28.8,19.6-47.6,19.6c-18.4,0-35.2-7.6-47.6-19.6
			c-12-12-19.6-28.8-19.6-47.6c0-24-9.6-46-25.6-62s-37.6-25.6-62-25.6c-18,0-34.8,5.6-48.8,14.8c23.6-47.6,67.6-98.4,102.4-138.8
			c8.4-10,16.4-19.2,23.6-28c7.2,8.8,15.2,18,23.6,27.6c50.8,58.8,121.2,140,121.2,203.6
			C356.334,259.867,356.334,262.267,356.334,264.667z"/>
	</g>
</g>
<g>
</g>
<g>
</g>
<g>
</g>
<g>
</g>
<g>
</g>
<g>
</g>
<g>
</g>
<g>
</g>
<g>
</g>
<g>
</g>
<g>
</g>
<g>
</g>
<g>
</g>
<g>
</g>
<g>
</g>
</svg>
